<?xml version="1.0" encoding="UTF-8" standalone="no" ?>
<!DOCTYPE svg PUBLIC "-//W3C//DTD SVG 1.1//EN" "http://www.w3.org/Graphics/SVG/1.1/DTD/svg11.dtd">
<svg xmlns="http://www.w3.org/2000/svg" xmlns:xlink="http://www.w3.org/1999/xlink" version="1.1" width="1080" height="1080" viewBox="0 0 1080 1080" xml:space="preserve">
<desc>Created with Fabric.js 5.2.4</desc>
<defs>
</defs>
<g transform="matrix(1 0 0 1 540 540)" id="e30c69f2-e923-478f-91c9-af8c335ff052"  >
<rect style="stroke: none; stroke-width: 1; stroke-dasharray: none; stroke-linecap: butt; stroke-dashoffset: 0; stroke-linejoin: miter; stroke-miterlimit: 4; fill: rgb(255,255,255); fill-rule: nonzero; opacity: 1; visibility: hidden;" vector-effect="non-scaling-stroke"  x="-540" y="-540" rx="0" ry="0" width="1080" height="1080" />
</g>
<g transform="matrix(1 0 0 1 540 540)" id="c2fb72b5-7e0d-458a-9bbb-91602afcb44d"  >
</g>
<g transform="matrix(2.09 0 0 2.09 537.22 537.23)" id="4a1419fc-7a64-4d9a-8029-5acb803a3105"  >
<path style="stroke: rgb(0,0,0); stroke-width: 0; stroke-dasharray: none; stroke-linecap: butt; stroke-dashoffset: 0; stroke-linejoin: miter; stroke-miterlimit: 4; fill: rgb(0,0,0); fill-rule: nonzero; opacity: 1;" vector-effect="non-scaling-stroke"  transform=" translate(-224.61, -252.43)" d="M 0 0 C 0.80932589 -0.00465992 1.61865178 -0.00931984 2.4525027 -0.01412097 C 5.17573116 -0.02611136 7.89846443 -0.01666 10.62169743 -0.00736332 C 12.58926942 -0.01153446 14.55683901 -0.01701077 16.52440411 -0.02368313 C 21.94012206 -0.0381852 27.35568845 -0.03387816 32.77141488 -0.02651632 C 38.60859345 -0.02179872 44.44573857 -0.03428198 50.28290653 -0.04453373 C 61.7217497 -0.06175462 73.16053802 -0.06255494 84.5993908 -0.05732083 C 93.89413531 -0.05328409 103.18886356 -0.05471677 112.48360729 -0.06006908 C 113.81839267 -0.06082595 115.15317805 -0.06158193 116.48796343 -0.06233703 C 118.49928828 -0.0634822 120.51061312 -0.06463208 122.52193796 -0.06579627 C 141.22497674 -0.07650359 159.92800949 -0.08122413 178.63105011 -0.07332611 C 179.68891454 -0.07288035 179.68891454 -0.07288035 180.76814997 -0.07242559 C 186.49546425 -0.06997657 192.22277846 -0.06736503 197.95009266 -0.06474145 C 220.29264689 -0.05463818 242.63512597 -0.06299499 264.97766972 -0.086236 C 290.07250223 -0.11229766 315.16728949 -0.12515949 340.26213604 -0.11804825 C 342.93697297 -0.11733217 345.6118099 -0.11665779 348.28664684 -0.1160078 C 349.60280823 -0.11568569 350.91896962 -0.11536358 352.27501468 -0.1150317 C 361.56070044 -0.11372903 370.84634882 -0.12209081 380.13202572 -0.13429928 C 391.44524728 -0.14898861 402.75836366 -0.14969955 414.07158308 -0.13222837 C 419.84646192 -0.12368913 425.6211526 -0.12164001 431.39602184 -0.13687992 C 436.67921748 -0.15065 441.96206241 -0.14606325 447.24523736 -0.12664068 C 449.1597166 -0.12285668 451.07422343 -0.12587113 452.98867827 -0.13625234 C 455.58562163 -0.14933649 458.18133906 -0.13791614 460.77822876 -0.12025452 C 461.90035094 -0.13473028 461.90035094 -0.13473028 463.04514226 -0.14949849 C 468.13538456 -0.07812794 471.02255038 1.18818656 474.95203495 4.38031673 C 477.94050369 8.69489487 477.35835047 13.69650052 477.38953495 18.75531673 C 477.42240604 19.68859798 477.45527714 20.62187923 477.48914433 21.58344173 C 477.52375678 26.02642196 477.50571995 29.34505624 474.6746912 32.91937923 C 470.65235536 36.55506299 468.12928548 37.64813912 462.70203495 37.50531673 C 461.36398808 37.47824642 461.36398808 37.47824642 459.99890995 37.45062923 C 459.3234412 37.42742611 458.64797245 37.40422298 457.95203495 37.38031673 C 457.95480033 39.14591017 457.95480033 39.14591017 457.95762157 40.94717216 C 458.00096321 68.90565711 458.03392897 96.86413943 458.05416561 124.82265094 C 458.05666694 128.26594519 458.05925559 131.70923938 458.06189823 135.15253353 C 458.06268516 136.18075444 458.06268516 136.18075444 458.06348799 137.22974748 C 458.07218401 148.32023783 458.08794956 159.41070739 458.10634054 170.50118541 C 458.12506194 181.88610348 458.13600677 193.27100616 458.14021194 204.65594059 C 458.14281863 211.04854246 458.14894289 217.44109721 458.16349506 223.83368397 C 458.17708513 229.85247871 458.18125467 235.87120698 458.17825031 241.8900156 C 458.17879983 244.09705498 458.18276874 246.30409661 458.1904459 248.5111227 C 458.20042935 251.52960845 458.19799135 254.54784484 458.19254398 257.56633663 C 458.20128251 258.86939043 458.20128251 258.86939043 458.21019757 260.19876856 C 458.16303479 269.89995208 456.48619219 277.95259953 449.95203495 285.38031673 C 440.82618398 293.40832098 430.87114523 293.67955378 419.18030643 293.60736752 C 417.30564953 293.6078056 417.30564953 293.6078056 415.39312077 293.60825253 C 411.99283851 293.60710429 408.59280412 293.59712753 405.19256568 293.58310461 C 401.62916572 293.57053629 398.06576188 293.56942197 394.50234318 293.56705379 C 387.7664945 293.56085685 381.03071134 293.54447041 374.29489142 293.52435482 C 366.62131921 293.50193998 358.94774375 293.49098839 351.27414691 293.48096395 C 335.50007071 293.46010244 319.72606389 293.42455494 303.95203495 293.38031673 C 303.95203495 298.00031673 303.95203495 302.62031673 303.95203495 307.38031673 C 305.45508183 307.31223812 306.9581287 307.24415951 308.50672245 307.17401791 C 314.10416145 306.93802534 319.70116624 306.78924948 325.30213261 306.66620541 C 327.72183079 306.60097876 330.14101937 306.51236728 332.55896854 306.39960384 C 351.95935628 305.51776804 351.95935628 305.51776804 356.73792362 308.49179745 C 360.0147526 311.83881689 361.37792137 316.06498532 362.95203495 320.38031673 C 364.19077032 322.57800526 365.47193316 324.75235721 366.79578495 326.89984798 C 368.01616132 328.99655846 369.23492164 331.09421041 370.45203495 333.19281673 C 371.08367558 334.27885189 371.7153162 335.36488705 372.36609745 336.48383236 C 373.89620307 339.11515036 375.42483428 341.74731204 376.95203495 344.38031673 C 377.61590214 344.1753558 378.27976933 343.97039486 378.9637537 343.75922298 C 379.84676151 343.48980892 380.72976933 343.22039486 381.63953495 342.94281673 C 382.94471073 342.54256283 382.94471073 342.54256283 384.2762537 342.13422298 C 396.97829865 338.55539864 410.05638188 339.50978895 421.7059412 345.88812923 C 432.52264903 352.98917407 439.8975186 362.28736161 442.7684412 374.99359798 C 445.21596208 390.06355358 442.10136797 402.3939468 433.2293787 414.78656673 C 432.59709354 415.57547298 432.59709354 415.57547298 431.95203495 416.38031673 C 432.94848026 416.47570736 433.94492558 416.57109798 434.9715662 416.66937923 C 448.52348792 418.63697802 460.39817545 428.51303195 468.88172245 438.69672298 C 475.1751115 447.44797791 477.57525094 456.79667112 477.41297245 467.44672298 C 477.41205601 468.44743328 477.41113956 469.44814358 477.41019535 470.47917843 C 477.40420476 472.57070382 477.38859783 474.6622225 477.36365604 476.75360775 C 477.32676778 479.96608349 477.32263997 483.1774153 477.3231287 486.39008236 C 477.31330998 488.42980593 477.30165846 490.46952169 477.28797245 492.50922298 C 477.2857468 493.47058666 477.28352116 494.43195034 477.28122807 495.42244625 C 477.26846836 496.30774517 477.25570866 497.19304409 477.24256229 498.10517025 C 477.2349387 498.88473583 477.2273151 499.66430141 477.21946049 500.4674902 C 476.95203495 502.38031673 476.95203495 502.38031673 474.95203495 504.38031673 C 472.3404789 504.64037895 472.3404789 504.64037895 468.96120548 504.6544714 C 467.68384022 504.66444653 466.40647495 504.67442165 465.09040165 504.68469906 C 463.66675675 504.68559492 462.2431117 504.68625846 460.81946659 504.68671322 C 459.326517 504.69433109 457.83357135 504.70275794 456.34063053 504.711936 C 452.2786861 504.73392338 448.21681696 504.74268543 444.15481973 504.74776244 C 441.61901433 504.75140069 439.08322883 504.75763792 436.54743099 504.76476383 C 427.70646004 504.78927203 418.8655479 504.8023134 410.02454472 504.80585384 C 401.77422821 504.80949131 393.52428323 504.83939805 385.27408034 504.88125843 C 378.19803016 504.91590695 371.12210343 504.93140133 364.04596895 504.93209988 C 359.81644904 504.9328945 355.58730739 504.94171716 351.35787487 504.97009754 C 347.38096406 504.99618594 343.40474762 504.99853591 339.42779064 504.9824419 C 337.96644425 504.98062004 336.50505878 504.9873844 335.04379749 505.00326061 C 333.0525828 505.02357939 331.06110851 505.0102344 329.06984806 504.99504757 C 327.95431081 504.9970589 326.83877356 504.99907022 325.68943214 505.0011425 C 322.95203495 504.38031673 322.95203495 504.38031673 321.09095764 502.01506805 C 319.78946552 499.00423324 319.60659569 496.91269724 319.6590662 493.64203548 C 319.66873417 492.57533627 319.67840214 491.50863705 319.68836308 490.40961361 C 319.71349979 489.30682064 319.73863651 488.20402767 319.76453495 487.06781673 C 319.77807011 485.94568783 319.79160526 484.82355892 319.80555058 483.66742611 C 319.84081751 480.9048499 319.89462192 478.14252143 319.95203495 475.38031673 C 314.67203495 475.38031673 309.39203495 475.38031673 303.95203495 475.38031673 C 303.97523808 476.98262142 303.9984412 478.58492611 304.02234745 480.23578548 C 304.04110898 482.3464579 304.05930877 484.45713537 304.07703495 486.56781673 C 304.09379276 487.62291439 304.11055058 488.67801205 304.1278162 489.76508236 C 304.13426151 490.78666439 304.14070683 491.80824642 304.14734745 492.86078548 C 304.15782108 493.79817562 304.16829472 494.73556576 304.17908573 495.70136166 C 303.91033649 498.87231378 303.27643751 502.05591418 300.95203495 504.38031673 C 298.9950336 504.48136343 297.03433697 504.51109049 295.07473087 504.5140295 C 293.79729511 504.51829449 292.51985935 504.52255947 291.20371342 504.5269537 C 289.77484986 504.52660413 288.34598633 504.52614257 286.91712284 504.52558041 C 285.42270161 504.52857027 283.92828116 504.53197239 282.43386173 504.53575802 C 278.36366443 504.54461979 274.29348812 504.54693704 270.2232821 504.5475738 C 266.8309451 504.5485211 263.43861304 504.55219731 260.04627794 504.5557459 C 252.04586694 504.56389873 244.0454672 504.56632938 236.04505253 504.56561947 C 227.77953446 504.56501844 219.5140816 504.57557329 211.24858004 504.59136313 C 204.16323382 504.60441846 197.07790896 504.60980421 189.99255079 504.60916406 C 185.75591394 504.60890848 181.519335 504.6117925 177.28271008 504.62234211 C 173.2994289 504.63198943 169.31626141 504.63212558 165.33297634 504.62482548 C 163.86799931 504.62377542 162.40301532 504.62616728 160.93805027 504.63218594 C 158.9441552 504.63984934 156.95022177 504.63408749 154.95632267 504.62755489 C 153.83856481 504.62809966 152.72080694 504.62864443 151.56917763 504.6292057 C 148.95203495 504.38031673 148.95203495 504.38031673 146.95203495 502.38031673 C 145.86104394 499.231721 145.83597831 496.27051166 145.8543787 492.95844173 C 145.85760136 491.93363705 145.86082401 490.90883236 145.86414433 489.85297298 C 145.87252323 488.78949642 145.88090214 487.72601986 145.88953495 486.63031673 C 145.89404667 485.55137142 145.89855839 484.47242611 145.90320683 483.36078548 C 145.91497753 480.70060548 145.93291256 478.04045405 145.95203495 475.38031673 C 140.67203495 475.38031673 135.39203495 475.38031673 129.95203495 475.38031673 C 129.97523808 476.98262142 129.9984412 478.58492611 130.02234745 480.23578548 C 130.04110898 482.3464579 130.05930877 484.45713537 130.07703495 486.56781673 C 130.09379276 487.62291439 130.11055058 488.67801205 130.1278162 489.76508236 C 130.13426151 490.78666439 130.14070683 491.80824642 130.14734745 492.86078548 C 130.15782108 493.79817562 130.16829472 494.73556576 130.17908573 495.70136166 C 129.91033649 498.87231378 129.27643751 502.05591418 126.95203495 504.38031673 C 124.9950336 504.48136343 123.03433697 504.51109049 121.07473087 504.5140295 C 119.79729511 504.51829449 118.51985935 504.52255947 117.20371342 504.5269537 C 115.77484986 504.52660413 114.34598633 504.52614257 112.91712284 504.52558041 C 111.42270161 504.52857027 109.92828116 504.53197239 108.43386173 504.53575802 C 104.36366443 504.54461979 100.29348812 504.54693704 96.2232821 504.5475738 C 92.8309451 504.5485211 89.43861304 504.55219731 86.04627794 504.5557459 C 78.04586694 504.56389873 70.0454672 504.56632938 62.04505253 504.56561947 C 53.77953446 504.56501844 45.5140816 504.57557329 37.24858004 504.59136313 C 30.16323382 504.60441846 23.07790896 504.60980421 15.99255079 504.60916406 C 11.75591394 504.60890848 7.519335 504.6117925 3.28271008 504.62234211 C -0.7005711 504.63198943 -4.68373859 504.63212558 -8.66702366 504.62482548 C -10.13200069 504.62377542 -11.59698468 504.62616728 -13.06194973 504.63218594 C -15.0558448 504.63984934 -17.04977823 504.63408749 -19.04367733 504.62755489 C -20.16143519 504.62809966 -21.27919306 504.62864443 -22.43082237 504.6292057 C -25.04796505 504.38031673 -25.04796505 504.38031673 -27.04796505 502.38031673 C -28.40711465 498.70407897 -28.20965341 494.84233008 -28.2159338 490.97406673 C -28.2192622 490.25352108 -28.2225906 489.53297543 -28.22601986 488.79059505 C -28.23107587 487.26419364 -28.23342859 485.7377812 -28.23326778 484.21137142 C -28.23543148 481.91592883 -28.25353711 479.62098542 -28.27257442 477.32562923 C -28.34026082 460.53051539 -26.41787268 445.74258021 -14.42296505 433.00531673 C -6.06645328 425.28379826 6.12117462 416.38031673 17.95203495 416.38031673 C 17.26367558 415.38064877 17.26367558 415.38064877 16.56140995 414.36078548 C 8.23514723 401.85389926 4.10443822 389.60316265 7.03797245 374.56391048 C 10.84363043 361.30916155 18.2353353 351.39082476 30.3309412 344.63422298 C 42.81036627 338.66418506 55.51415324 338.97774365 68.40515995 343.50531673 C 70.81845066 344.4886226 70.81845066 344.4886226 72.95203495 344.38031673 C 73.36977177 343.65030453 73.78750858 342.92029232 74.21790409 342.16815853 C 75.80192067 339.40296 77.38831068 336.63913973 78.97620487 333.87616634 C 79.65681348 332.69082236 80.33653339 331.50496755 81.01526737 330.31854916 C 83.82948051 325.40044611 83.82948051 325.40044611 85.03456974 323.42589474 C 86.70187848 320.68213531 88.03822372 318.13324226 89.09827518 315.09442806 C 90.62096045 311.34383613 91.59749892 309.70945613 94.95203495 307.38031673 C 103.39279877 305.51317156 112.32093677 306.35589809 120.88953495 306.69281673 C 123.31455509 306.74801544 125.73969485 306.79820173 128.16492558 306.84320736 C 134.09691723 306.96421453 140.02316959 307.15387911 145.95203495 307.38031673 C 145.95203495 302.76031673 145.95203495 298.14031673 145.95203495 293.38031673 C 144.50623554 293.38475796 143.06043613 293.38919918 141.57082462 293.39377499 C 127.93177239 293.43435478 114.29272486 293.46443764 100.6536274 293.48394108 C 93.64198786 293.49423489 86.63039352 293.50825881 79.618783 293.53119564 C 72.84959263 293.55332881 66.08044922 293.56489281 59.31122494 293.57007122 C 56.7313186 293.57376067 54.15141476 293.58096521 51.57152843 293.59177685 C 47.95229556 293.60633808 44.3332554 293.60829271 40.71399784 293.60736752 C 39.65231892 293.61455807 38.59063999 293.62174862 37.49678898 293.62915707 C 27.1344515 293.60057694 19.01553868 292.22255194 10.95203495 285.38031673 C 4.7329367 278.6467432 3.65379176 271.62577059 3.71152592 262.73728085 C 3.70981707 261.77251949 3.70810822 260.80775814 3.70634758 259.81376159 C 3.70305635 256.58473148 3.71405049 253.3559097 3.72498417 250.12689877 C 3.72554836 247.81077231 3.72523157 245.4946455 3.72409916 243.17851925 C 3.72352496 236.89185365 3.73529023 230.60526426 3.74924707 224.31861639 C 3.76174318 217.74827523 3.76292405 211.17793235 3.76529789 204.60758114 C 3.77047618 193.57998997 3.78330474 182.55242552 3.80115604 171.52484798 C 3.81952162 160.16775305 3.83367481 148.81066571 3.84217167 137.45355892 C 3.84269712 136.7531913 3.84322256 136.05282368 3.84376393 135.3312328 C 3.84637406 131.81759991 3.84890146 128.30396697 3.85138774 124.79033399 C 3.87211209 95.65364339 3.90747945 66.51698044 3.95203495 37.38031673 C 2.8218494 37.40968319 2.8218494 37.40968319 1.66883183 37.43964291 C 0.67947636 37.45486996 -0.30987911 37.47009701 -1.32921505 37.48578548 C -2.30954708 37.50536312 -3.28987911 37.52494076 -4.29991817 37.54511166 C -8.20247585 37.31108301 -10.20882812 36.00651839 -13.04796505 33.38031673 C -16.8240674 28.70987435 -16.49770887 24.11067667 -16.42296505 18.38031673 C -16.43456661 17.49086361 -16.44616817 16.60141048 -16.4581213 15.68500423 C -16.4363588 10.82471184 -16.36977169 7.20982308 -13.04796505 3.38031673 C -8.83740311 0.17542917 -5.11415067 -0.04591728 0 0 Z M -3.04796505 13.38031673 C -3.04796505 17.01031673 -3.04796505 20.64031673 -3.04796505 24.38031673 C 151.06203495 24.38031673 305.17203495 24.38031673 463.95203495 24.38031673 C 463.95203495 20.42031673 463.95203495 16.46031673 463.95203495 12.38031673 C 404.60341187 12.35745304 345.25478887 12.33981785 285.90616233 12.3292514 C 278.90753718 12.32800401 271.90891204 12.32670747 264.9102869 12.32538509 C 263.865588 12.32518896 263.865588 12.32518896 262.79978407 12.32498885 C 240.20492931 12.32072369 217.61007705 12.31320954 195.01522381 12.30401951 C 171.14864278 12.29432981 147.28206352 12.28832313 123.41548055 12.28622824 C 109.10947591 12.28485267 94.80347842 12.28050025 80.49747597 12.27240027 C 70.70178772 12.26713484 60.90610319 12.26551197 51.11041362 12.26681536 C 45.44966497 12.26745906 39.78892886 12.26643765 34.12818241 12.26111126 C 28.95495778 12.25627883 23.78175423 12.25597704 18.60852867 12.25941784 C 16.72830754 12.25984369 14.84808515 12.25854664 12.96786655 12.25543355 C 10.42947702 12.25147215 7.89116558 12.25355172 5.35277748 12.25726891 C 4.23528054 12.25332839 4.23528054 12.25332839 3.0952079 12.24930826 C -0.26157414 11.96443223 -0.26157414 11.96443223 -3.04796505 13.38031673 Z M 16.95203495 37.38031673 C 16.84890995 75.68094173 16.74578495 113.98156673 16.63953495 153.44281673 C 16.59401493 165.54332699 16.54849491 177.64383724 16.5015955 190.11102962 C 16.48487495 200.94304969 16.48487495 200.94304969 16.47481632 211.77507687 C 16.47015167 216.605719 16.45138923 221.43608734 16.42415714 226.26665401 C 16.38989058 232.42652174 16.37957366 238.58599066 16.38667357 244.74594486 C 16.3851887 247.00776553 16.37525634 249.26959997 16.3559593 251.53133881 C 16.33110806 254.585716 16.33707534 257.63854165 16.35076237 260.69295406 C 16.33619905 261.57889972 16.32163572 262.46484537 16.30663109 263.37763786 C 16.37000675 268.63534961 17.30026701 271.82118442 20.52872014 276.00260466 C 26.12356784 281.4181945 34.2465164 280.80009285 41.49280643 280.73676205 C 43.18927059 280.73982861 43.18927059 280.73982861 44.92000675 280.74295712 C 48.63788142 280.74595222 52.35530716 280.72753164 56.0731287 280.70844173 C 58.66004673 280.70538294 61.24696641 280.70350774 63.83388615 280.70276546 C 69.24304826 280.69817104 74.65205172 280.68416623 80.06116581 280.66156673 C 87.01107173 280.63258948 93.96087549 280.62233218 100.91083527 280.61788464 C 106.24575283 280.61433852 111.58064743 280.60393162 116.91555309 280.59200954 C 119.47973342 280.5862959 122.04391606 280.58154083 124.60809994 280.57774258 C 128.17778342 280.57090817 131.74737178 280.55729189 135.31702518 280.54144955 C 136.38554722 280.54033169 137.45406925 280.53921383 138.55497074 280.5380621 C 139.520826 280.53235195 140.48668125 280.52664181 141.48180485 280.52075863 C 142.74797217 280.51629663 142.74797217 280.51629663 144.03971863 280.5117445 C 145.96128225 280.59005601 145.96128225 280.59005601 146.95203495 279.38031673 C 147.17587877 277.65308945 147.38043464 275.92335667 147.57703495 274.19281673 C 149.6403147 261.61877131 155.94803042 251.22793284 165.95203495 243.38031673 C 173.99733104 237.8466048 182.84809696 233.84848359 191.95203495 230.38031673 C 191.39773808 229.43930111 190.8434412 228.49828548 190.27234745 227.52875423 C 189.54028628 226.27111069 188.8085317 225.01328865 188.07703495 223.75531673 C 187.52982792 222.82912533 187.52982792 222.82912533 186.9715662 221.88422298 C 181.11017333 211.75999893 179.78605093 201.01413443 182.0340662 189.53266048 C 185.78549789 176.65008442 192.56900667 167.27452242 204.29578495 160.66937923 C 215.19267548 155.38118236 227.06124748 154.76556651 238.70203495 157.94281673 C 250.2427956 161.94417535 259.2159377 169.55530759 264.76453495 180.44281673 C 269.10381179 190.81684944 270.38423477 202.58749561 266.95203495 213.38031673 C 264.93128523 218.20903676 262.46043947 222.78946318 259.95203495 227.38031673 C 259.27846886 228.71017799 258.60818259 230.04177555 257.95203495 231.38031673 C 258.84664433 231.67164486 259.7412537 231.96297298 260.66297245 232.26312923 C 276.01413098 237.46746656 290.16334503 245.4621677 297.95203495 260.38031673 C 300.75023408 266.6695167 302.31940016 272.54786101 302.95203495 279.38031673 C 304.6135269 281.04180868 306.59220187 280.51701429 308.87783146 280.52748775 C 310.47806911 280.53822071 310.47806911 280.53822071 312.1106348 280.54917049 C 313.2913657 280.5518594 314.4720966 280.5545483 315.68860722 280.55731869 C 316.92435993 280.56388988 318.16011265 280.57046108 319.43331242 280.57723141 C 322.83452094 280.59360742 326.23566692 280.60520252 329.63690019 280.61343694 C 331.76283625 280.61858441 333.88876792 280.62466048 336.01470089 280.63094807 C 342.66862046 280.65001427 349.32252888 280.66423838 355.97647053 280.67256004 C 363.65184982 280.68231751 371.32693955 280.70859167 379.00221688 280.74906093 C 384.93607338 280.77927101 390.86984718 280.79403381 396.80377907 280.79734105 C 400.34654374 280.79968738 403.88899963 280.80859169 407.43168163 280.83380222 C 411.39111428 280.86152028 415.35017025 280.85723681 419.30970097 280.85028744 C 420.47626225 280.8630975 421.64282352 280.87590755 422.84473515 280.8891058 C 429.67913835 280.84542972 434.16102105 280.10417955 439.95203495 276.38031673 C 444.69904241 270.41612788 445.09657713 265.67528814 445.07228947 258.28786373 C 445.07314548 257.34835873 445.0740015 256.40885372 445.07488346 255.44087887 C 445.07654425 252.26938665 445.07100592 249.09794674 445.06556034 245.92645931 C 445.06525415 243.62326306 445.06538725 241.32006671 445.0659256 239.0168705 C 445.06615187 232.83458266 445.06034515 226.65231407 445.05331516 220.47003078 C 445.04763113 214.67429702 445.04735264 208.87856799 445.04663944 203.08283138 C 445.04138671 186.1194906 445.02742563 169.15615343 445.01453495 152.19281673 C 444.99390995 114.30469173 444.97328495 76.41656673 444.95203495 37.38031673 C 303.71203495 37.38031673 162.47203495 37.38031673 16.95203495 37.38031673 Z M 200.95203495 179.38031673 C 200.21146854 180.1653558 200.21146854 180.1653558 199.4559412 180.96625423 C 194.7188325 186.7295022 192.7851329 194.16082417 193.07703495 201.54047298 C 194.58927556 212.2206723 198.5680792 219.53038188 206.95203495 226.38031673 C 214.64033177 231.2133584 221.94698797 232.15853067 230.95203495 231.38031673 C 240.44347029 229.12304128 247.66360724 223.104872 252.99109745 215.06000423 C 257.18747112 207.72487952 257.54566474 199.8565186 255.6668787 191.82562923 C 253.19963985 183.38578488 248.3343621 176.44709427 240.5731287 172.02484798 C 226.21097242 165.47078326 211.92500192 167.63249333 200.95203495 179.38031673 Z M 194.20203495 243.44281673 C 193.51101688 243.66614681 192.81999882 243.88947689 192.10804081 244.11957455 C 180.09744252 248.19943116 168.42241632 255.13439586 162.45203495 266.75531673 C 156.41222047 281.35153505 159.95203495 282.60486512 159.95203495 307.38031673 C 202.85203495 307.38031673 245.75203495 307.38031673 289.95203495 307.38031673 C 292.17522732 279.55831475 292.17522732 279.55831475 280.91297245 258.28656673 C 271.12770872 248.7741988 257.85231708 241.61333812 243.95203495 241.13031673 C 240.56330826 241.20882006 237.61549537 242.02382571 234.35047245 242.92719173 C 227.6748551 244.18838329 220.14595604 244.19780478 213.57703495 242.38031673 C 206.73770545 240.49360515 200.86290874 241.27019959 194.20203495 243.44281673 Z M 102.95203495 319.38031673 C 100.90638967 322.91776278 98.86175868 326.45579302 96.81800175 329.99433041 C 96.12491014 331.19402941 95.43155795 332.39357792 94.73792362 333.59296322 C 90.74976771 340.48944944 86.7861455 347.39663579 82.95203495 354.38031673 C 83.37162479 354.90125912 83.79121464 355.4222015 84.22351933 355.95893002 C 92.24912238 366.04924403 95.20915669 376.53622742 94.8700037 389.52094173 C 93.83337829 398.04177478 90.01390647 404.94632545 85.95203495 412.38031673 C 85.27846886 413.71017799 84.60818259 415.04177555 83.95203495 416.38031673 C 84.84664433 416.67164486 85.7412537 416.96297298 86.66297245 417.26312923 C 102.00061802 422.46288541 116.18702734 430.45884444 123.95203495 445.38031673 C 126.41451025 451.05747039 127.93056036 456.25146917 128.95203495 462.38031673 C 134.89203495 462.38031673 140.83203495 462.38031673 146.95203495 462.38031673 C 147.50890995 459.50312923 147.50890995 459.50312923 148.07703495 456.56781673 C 151.40232178 442.38916317 159.03974235 433.00548589 171.13953495 425.13031673 C 177.79596295 421.19625763 184.59611128 418.67421797 191.95203495 416.38031673 C 190.78652176 414.00266983 189.56586933 411.67356078 188.29578495 409.34906673 C 181.55620894 396.66952542 179.38154277 385.69155177 182.95203495 371.38031673 C 187.42942454 358.70298164 194.88704268 350.23538651 206.95203495 344.38031673 C 218.3377652 339.81916576 230.40316384 340.06547091 241.91297245 344.05609798 C 253.01961044 348.89562277 261.27460277 357.09933648 265.94422245 368.26312923 C 270.2299455 381.51897029 269.67969216 393.56118725 263.45203495 405.88031673 C 262.2970589 408.05323778 261.13195561 410.2208393 259.95203495 412.38031673 C 259.27846886 413.71017799 258.60818259 415.04177555 257.95203495 416.38031673 C 258.84664433 416.67164486 259.7412537 416.96297298 260.66297245 417.26312923 C 276.00061802 422.46288541 290.18702734 430.45884444 297.95203495 445.38031673 C 300.41451025 451.05747039 301.93056036 456.25146917 302.95203495 462.38031673 C 308.89203495 462.38031673 314.83203495 462.38031673 320.95203495 462.38031673 C 321.50890995 459.50312923 321.50890995 459.50312923 322.07703495 456.56781673 C 325.40232178 442.38916317 333.03974235 433.00548589 345.13953495 425.13031673 C 351.79596295 421.19625763 358.59611128 418.67421797 365.95203495 416.38031673 C 364.78028271 413.99580093 363.55875409 411.65219061 362.29578495 409.31391048 C 355.65047129 396.71315683 353.19672847 385.37889221 356.95203495 371.38031673 C 359.33203957 364.90576469 362.66170366 358.78587175 366.95203495 353.38031673 C 366.34617558 352.3503558 365.7403162 351.32039486 365.11609745 350.25922298 C 363.44943078 347.42588965 361.78276412 344.59255632 360.11609745 341.75922298 C 359.64471033 341.00694896 359.17332321 340.25467493 358.68765163 339.47960472 C 357.3169548 337.03195354 356.29947618 334.79474552 355.28290081 332.20413208 C 351.6831595 323.8039279 351.6831595 323.8039279 344.67918062 318.40501952 C 337.6924545 316.82930301 330.52982777 317.25203503 323.41834354 317.45038509 C 321.01296169 317.45518395 318.60755495 317.45248159 316.20218754 317.44286251 C 310.36354027 317.43849757 304.52966367 317.51195234 298.69210558 317.62030273 C 291.8961082 317.74220207 285.10077283 317.76730079 278.30383535 317.78670163 C 266.18475037 317.82384127 254.06761878 317.93678262 241.94959354 318.09784603 C 230.18341644 318.25406959 218.41777127 318.37431093 206.65076542 318.44647884 C 205.92456573 318.45094514 205.19836605 318.45541144 204.45016031 318.46001308 C 200.8067566 318.48219992 197.16334915 318.50368267 193.51993918 318.52481544 C 163.32923961 318.7008395 133.14090925 319.00133979 102.95203495 319.38031673 Z M 24.95203495 366.38031673 C 20.49802669 372.48798118 18.60815475 380.53017314 19.13953495 388.02484798 C 20.8427195 397.92460819 25.16881039 405.02119666 32.95203495 411.38031673 C 40.64033177 416.2133584 47.94698797 417.15853067 56.95203495 416.38031673 C 66.10522645 414.20348323 73.76457387 408.28799552 78.91297245 400.44281673 C 83.27053445 391.79321997 83.58065863 383.58703849 80.95203495 374.38031673 C 78.4811553 367.00608523 73.34055203 360.88083468 66.5731287 357.02484798 C 50.863161 349.85571939 36.45582691 353.48407324 24.95203495 366.38031673 Z M 200.95203495 364.38031673 C 200.21146854 365.1653558 200.21146854 365.1653558 199.4559412 365.96625423 C 194.7188325 371.7295022 192.7851329 379.16082417 193.07703495 386.54047298 C 194.58927556 397.2206723 198.5680792 404.53038188 206.95203495 411.38031673 C 214.64033177 416.2133584 221.94698797 417.15853067 230.95203495 416.38031673 C 240.44347029 414.12304128 247.66360724 408.104872 252.99109745 400.06000423 C 257.18747112 392.72487952 257.54566474 384.8565186 255.6668787 376.82562923 C 253.19963985 368.38578488 248.3343621 361.44709427 240.5731287 357.02484798 C 226.21097242 350.47078326 211.92500192 352.63249333 200.95203495 364.38031673 Z M 374.95203495 364.38031673 C 374.21146854 365.1653558 374.21146854 365.1653558 373.4559412 365.96625423 C 368.7188325 371.7295022 366.7851329 379.16082417 367.07703495 386.54047298 C 368.58927556 397.2206723 372.5680792 404.53038188 380.95203495 411.38031673 C 388.64033177 416.2133584 395.94698797 417.15853067 404.95203495 416.38031673 C 414.44347029 414.12304128 421.66360724 408.104872 426.99109745 400.06000423 C 431.18747112 392.72487952 431.54566474 384.8565186 429.6668787 376.82562923 C 427.19963985 368.38578488 422.3343621 361.44709427 414.5731287 357.02484798 C 400.21097242 350.47078326 385.92500192 352.63249333 374.95203495 364.38031673 Z M 64.01453495 426.81781673 C 54.51860746 429.61526564 45.3709482 428.97863763 35.95203495 426.38031673 C 30.31322032 426.09190137 25.59113988 426.68502007 20.20203495 428.44281673 C 19.51101688 428.66614681 18.81999882 428.88947689 18.10804081 429.11957455 C 6.09744252 433.19943116 -5.57758368 440.13439586 -11.54796505 451.75531673 C -17.58777953 466.35153505 -14.04796505 467.60486512 -14.04796505 492.38031673 C 29.18203495 492.38031673 72.41203495 492.38031673 116.95203495 492.38031673 C 118.27742266 464.88956416 118.27742266 464.88956416 106.38953495 442.25531673 C 97.08259677 433.53764466 86.02335438 429.57994357 73.95203495 426.38031673 C 73.07289433 426.14184017 72.1937537 425.90336361 71.28797245 425.65766048 C 68.45181902 425.32092655 66.70413733 425.88536598 64.01453495 426.81781673 Z M 174.03015995 438.58734798 C 167.21763617 444.50295665 162.8408804 449.71378039 159.95203495 458.38031673 C 159.95203495 469.60031673 159.95203495 480.82031673 159.95203495 492.38031673 C 202.85203495 492.38031673 245.75203495 492.38031673 289.95203495 492.38031673 C 292.17522732 464.55831475 292.17522732 464.55831475 280.91297245 443.28656673 C 270.8108354 433.46616259 257.15542317 426.56994062 242.95203495 425.38031673 C 240.12039636 425.88425242 237.5512783 426.68047994 234.82703495 427.59516048 C 227.23324214 429.66900879 219.43105612 429.00280603 212.01453495 426.63031673 C 199.60752832 423.17019536 183.75687582 431.24029656 174.03015995 438.58734798 Z M 348.03015995 438.58734798 C 338.9080091 446.5085056 334.68098882 453.27763967 332.95203495 465.38031673 C 332.95203495 474.29031673 332.95203495 483.20031673 332.95203495 492.38031673 C 376.18203495 492.38031673 419.41203495 492.38031673 463.95203495 492.38031673 C 466.00211665 463.77710237 466.00211665 463.77710237 453.95203495 441.38031673 C 444.11857448 432.81686039 429.98792435 426.47215519 416.95203495 425.38031673 C 414.12039636 425.88425242 411.5512783 426.68047994 408.82703495 427.59516048 C 401.23324214 429.66900879 393.43105612 429.00280603 386.01453495 426.63031673 C 373.60752832 423.17019536 357.75687582 431.24029656 348.03015995 438.58734798 Z" stroke-linecap="round" />
</g>
</svg>