<?xml version="1.0" standalone="no"?>
<!DOCTYPE svg PUBLIC "-//W3C//DTD SVG 20010904//EN"
 "http://www.w3.org/TR/2001/REC-SVG-20010904/DTD/svg10.dtd">
<svg version="1.0" xmlns="http://www.w3.org/2000/svg"
 width="512.000000pt" height="512.000000pt" viewBox="0 0 512.000000 512.000000"
 preserveAspectRatio="xMidYMid meet">

<g transform="translate(0.000000,512.000000) scale(0.100000,-0.100000)"
fill="#000000" stroke="none">
<path d="M770 5099 c-188 -40 -349 -126 -486 -263 -139 -140 -224 -299 -263
-493 -21 -99 -21 -129 -21 -1303 0 -1174 0 -1204 21 -1303 39 -194 124 -353
263 -493 140 -139 299 -224 493 -263 98 -20 131 -21 1102 -21 l1001 0 0 -412
c0 -381 2 -416 19 -454 32 -70 100 -104 178 -89 34 6 94 62 513 481 l475 474
89 0 c176 0 381 61 531 158 90 59 218 187 277 277 63 98 113 222 137 342 21
99 21 129 21 1303 0 1174 0 1204 -21 1303 -39 194 -124 353 -263 493 -140 139
-299 224 -493 263 -100 21 -123 21 -1790 20 -1644 0 -1690 -1 -1783 -20z
m3524 -314 c239 -50 441 -252 491 -491 22 -103 22 -2405 0 -2508 -39 -183
-170 -352 -336 -434 -111 -55 -193 -72 -352 -72 -87 0 -138 -4 -160 -14 -18
-8 -188 -170 -382 -365 l-350 -351 -5 314 c-5 298 -6 316 -26 342 -11 15 -33
37 -48 48 -27 21 -36 21 -1159 26 l-1132 5 -65 23 c-173 62 -304 174 -378 323
-75 152 -72 84 -72 1409 0 1325 -3 1257 72 1409 81 164 251 297 429 336 99 21
3373 21 3473 0z"/>
<path d="M1375 3826 c-41 -18 -83 -69 -90 -109 -3 -18 -5 -190 -3 -384 3 -337
4 -353 24 -379 50 -68 54 -69 294 -72 l220 -3 -100 -199 c-55 -110 -100 -202
-100 -205 0 -6 281 -147 285 -143 2 2 78 153 169 337 l167 335 -3 367 c-3 353
-4 369 -24 395 -11 15 -33 37 -48 48 -26 20 -41 21 -394 23 -290 2 -373 0
-397 -11z m545 -466 l0 -160 -160 0 -160 0 0 160 0 160 160 0 160 0 0 -160z"/>
<path d="M2975 3826 c-41 -18 -83 -69 -90 -109 -3 -18 -5 -190 -3 -384 3 -337
4 -353 24 -379 50 -68 54 -69 294 -72 l220 -3 -100 -199 c-55 -110 -100 -202
-100 -205 0 -6 281 -147 285 -143 2 2 78 153 169 337 l167 335 -3 367 c-3 353
-4 369 -24 395 -11 15 -33 37 -48 48 -26 20 -41 21 -394 23 -290 2 -373 0
-397 -11z m545 -466 l0 -160 -160 0 -160 0 0 160 0 160 160 0 160 0 0 -160z"/>
</g>
</svg>
